# xmcd
#
# Track frame offsets:
#	150
#	17742
#	19625
#	40733
#	75083
#	103735
#	138684
#	161566
#	181829
#	217859
#	236725
#	260265
#
# Disc length: 3789 seconds
#
# Revision: 1
# Processed by: cddbd v1.5.2PL0 Copyright (c) Steve Scherf et al.
# Submitted via: audiograbber 1.83.01
#
DISCID=8d0ecb0c
DTITLE=John Earl Walker - Live In Germany
DYEAR=2009
DGENRE=Blues
TTITLE0=Tess's Shuffle
TTITLE1=Band Introduction
TTITLE2=Come On Over Here
TTITLE3=I'm Leavin' You
TTITLE4=My Last Goodbye
TTITLE5=Airport Blues
TTITLE6=Backdoor Romance
TTITLE7=The World's A Prison
TTITLE8=Poor Boy Blues
TTITLE9=Nightwalker
TTITLE10=Hurricane
TTITLE11=Baby Baby Baby
EXTD=
EXTT0=
EXTT1=
EXTT2=
EXTT3=
EXTT4=
EXTT5=
EXTT6=
EXTT7=
EXTT8=
EXTT9=
EXTT10=
EXTT11=
PLAYORDER=
